<?xml version="1.0" standalone="no"?>
<svg xmlns:xlink="http://www.w3.org/1999/xlink" id="wave" style="transform:rotate(0deg); transition: 0.3s" viewBox="0 0 1440 200" version="1.1" xmlns="http://www.w3.org/2000/svg"><defs><linearGradient id="sw-gradient-0" x1="0" x2="0" y1="1" y2="0"><stop stop-color="rgba(233, 245, 219, 1)" offset="0%"/><stop stop-color="rgba(128, 177, 132, 1)" offset="100%"/></linearGradient></defs><path style="transform:translate(0, 0px); opacity:1" fill="url(#sw-gradient-0)" d="M0,40L80,63.3C160,87,320,133,480,153.3C640,173,800,167,960,146.7C1120,127,1280,93,1440,83.3C1600,73,1760,87,1920,96.7C2080,107,2240,113,2400,126.7C2560,140,2720,160,2880,153.3C3040,147,3200,113,3360,83.3C3520,53,3680,27,3840,43.3C4000,60,4160,120,4320,126.7C4480,133,4640,87,4800,73.3C4960,60,5120,80,5280,93.3C5440,107,5600,113,5760,100C5920,87,6080,53,6240,40C6400,27,6560,33,6720,43.3C6880,53,7040,67,7200,80C7360,93,7520,107,7680,103.3C7840,100,8000,80,8160,76.7C8320,73,8480,87,8640,106.7C8800,127,8960,153,9120,156.7C9280,160,9440,140,9600,126.7C9760,113,9920,107,10080,100C10240,93,10400,87,10560,70C10720,53,10880,27,11040,40C11200,53,11360,107,11440,133.3L11520,160L11520,200L11440,200C11360,200,11200,200,11040,200C10880,200,10720,200,10560,200C10400,200,10240,200,10080,200C9920,200,9760,200,9600,200C9440,200,9280,200,9120,200C8960,200,8800,200,8640,200C8480,200,8320,200,8160,200C8000,200,7840,200,7680,200C7520,200,7360,200,7200,200C7040,200,6880,200,6720,200C6560,200,6400,200,6240,200C6080,200,5920,200,5760,200C5600,200,5440,200,5280,200C5120,200,4960,200,4800,200C4640,200,4480,200,4320,200C4160,200,4000,200,3840,200C3680,200,3520,200,3360,200C3200,200,3040,200,2880,200C2720,200,2560,200,2400,200C2240,200,2080,200,1920,200C1760,200,1600,200,1440,200C1280,200,1120,200,960,200C800,200,640,200,480,200C320,200,160,200,80,200L0,200Z"/></svg>